<svg xmlns="http://www.w3.org/2000/svg" version="1.1" xmlns:xlink="http://www.w3.org/1999/xlink" xmlns:svgjs="http://svgjs.dev/svgjs" width="100%" height="100%" viewBox="0 0 1000 600"><rect width="1000" height="600" x="0" y="0" fill="#4681f4"/><g><circle r="166.66666666666666" cx="385.9932657877604" cy="408.2154161569382" fill="#ffffff" transform="matrix(0.569926489774858,0,0,0.5699264897748579,0,67.34722262949577)"/><path d="M325.85174192866094 388.05028990629995L325.85174192866094 435.73110770702107Q327.1882199214264 436.1634976458569 328.95708785302776 436.55657940843497Q330.72595578462915 436.9496611710131 332.7503268619063 437.1855102285599Q334.77469793918334 437.4410133742357 336.897339457105 437.578591991138Q339.0199809750266 437.71617060804033 340.98538978791703 437.71617060804033L340.98538978791703 437.71617060804033Q345.3092891762759 437.71617060804033 348.59152189380285 436.30107626275924Q351.89340869945875 434.88598191747815 354.291207451185 432.5274913420097Q356.7086602910402 430.1493466784123 358.3006414294814 426.926076225272Q359.8926225679226 423.7028057721318 360.8753269743678 420.14541582080017Q361.85803138081303 416.56837178133964 362.2511131433911 412.7358245962034Q362.6441949059692 408.922931499196 362.6441949059692 405.3065792834777L362.6441949059692 405.3065792834777Q362.6441949059692 398.2311075570722 361.3077169132037 393.4355100536197Q359.9515848323093 388.6202584620382 357.65205652122756 385.6524911545737Q355.3525282101458 382.6650697589803 352.3454527264235 381.40720811873047Q349.3383772427012 380.12969239035164 346.0168363489164 380.12969239035164L346.0168363489164 380.12969239035164Q340.4350753203077 380.12969239035164 335.32501240679267 382.29164208453113Q330.23460358140653 384.4339376905817 325.85174192866094 388.05028990629995L325.85174192866094 388.05028990629995ZM312.40834564849064 445.36161089018395L312.40834564849064 347.36632747946874L310.99325130320955 334.6304783719389L325.85174192866094 333.2153840266579L325.85174192866094 378.93079301448853L331.86589289610555 372.484252108208Q335.4822451118239 370.7940005291223 339.43271682573356 369.7916420345482Q343.4028426277722 368.80893762810297 347.3533143416819 368.80893762810297L347.3533143416819 368.80893762810297Q353.22988669222417 368.80893762810297 358.4382200463838 371.20673637982924Q363.62689931241437 373.62418921968447 367.5577169381952 378.3215162824925Q371.488534563976 383.0188433453006 373.78806287505773 389.89777419041695Q376.0875911861395 396.7570509474045 376.0875911861395 405.6603528697979L376.0875911861395 405.6603528697979Q376.0875911861395 415.42843466986324 373.4342892887375 423.4276485383271Q370.78098739133543 431.42686240679103 366.00504397601173 437.1265479641732Q361.2291005606881 442.80657943342646 354.68428921376307 445.9315794459222Q348.13947786683804 449.036925370289 340.3564589677921 449.036925370289L340.3564589677921 449.036925370289Q335.8949809625309 449.036925370289 331.5907356623009 448.72245996022656Q327.26683627394203 448.4079945501641 323.5129054413214 447.8773341706837Q319.7589746087007 447.3466737912033 316.86982365375184 446.67843479482053Q313.96101861067405 445.9905417103089 312.40834564849064 445.36161089018395L312.40834564849064 445.36161089018395ZM410.7574026455261 389.3278056346787L410.7574026455261 436.51727123217717L422.35331464157946 436.51727123217717Q428.8784719003756 436.51727123217717 433.6544153156992 434.3553215379978Q438.4303587310229 432.1933718438183 441.49639647913193 428.3018623942953Q444.5820883153699 424.41035294477234 446.05614492503764 418.96617053306596Q447.54985562283434 413.5219881213595 447.54985562283434 406.9378685981767L447.54985562283434 406.9378685981767Q447.54985562283434 399.99997548867356 446.2133776300689 394.9488748395453Q444.85724554917454 389.89777419041695 442.518409061835 386.59588738476106Q440.19922666262426 383.3136546672341 437.1135348263864 381.7216735287929Q434.02784299014843 380.12969239035164 430.5687234794613 380.12969239035164L430.5687234794613 380.12969239035164Q427.10960396877425 380.12969239035164 424.10252848505195 381.01412635615236Q421.09545300132964 381.898560321953 418.5797297208299 383.2350383147185Q416.0640064403302 384.5911703956129 414.0789435393109 386.202805622183Q412.0938806382916 387.834094936882 410.7574026455261 389.3278056346787L410.7574026455261 389.3278056346787ZM410.7574026455261 483.21538462645304L397.3140063653558 483.21538462645304L397.3140063653558 370.00783700396613L410.7574026455261 368.59274265868504L410.7574026455261 381.05343453241017L417.4791007856113 372.0518621693721Q419.5231259510173 370.852962793509 423.3163649598958 369.830950210806Q427.10960396877425 368.80893762810297 432.61274864486734 368.80893762810297L432.61274864486734 368.80893762810297Q438.4893209954097 368.80893762810297 443.65834617331143 371.56050996614954Q448.8273713512132 374.331736392325 452.6795726244783 379.42214521771115Q456.5317738977435 384.5125540430973 458.77233994443856 391.725604386405Q460.9932519030047 398.9386547297128 460.9932519030047 407.86161074023516L460.9932519030047 407.86161074023516Q460.9932519030047 416.56837178133964 458.1630632124425 423.8796925652919Q455.33287452188034 431.2106674373731 450.1245411677208 436.55657940843497Q444.93586190169015 441.9024913794969 437.54592476522225 444.8702586869614Q430.13633354062546 447.8380259944259 421.016836648814 447.8380259944259L421.016836648814 447.8380259944259L410.7574026455261 447.8380259944259L410.7574026455261 483.21538462645304Z " fill="#111f4d" transform="matrix(0.569926489774858,0,0,0.5699264897748579,0,67.34722262949577)"/><path d="M650.8517419286609 388.05028990629995L650.8517419286609 435.73110770702107Q652.1882199214264 436.1634976458569 653.9570878530278 436.55657940843497Q655.7259557846292 436.9496611710131 657.7503268619062 437.1855102285599Q659.7746979391834 437.4410133742357 661.897339457105 437.578591991138Q664.0199809750266 437.71617060804033 665.985389787917 437.71617060804033L665.985389787917 437.71617060804033Q670.3092891762758 437.71617060804033 673.5915218938028 436.30107626275924Q676.8934086994586 434.88598191747815 679.291207451185 432.5274913420097Q681.7086602910401 430.1493466784123 683.3006414294814 426.926076225272Q684.8926225679227 423.7028057721318 685.8753269743678 420.14541582080017Q686.858031380813 416.56837178133964 687.2511131433911 412.7358245962034Q687.6441949059691 408.922931499196 687.6441949059691 405.3065792834777L687.6441949059691 405.3065792834777Q687.6441949059691 398.2311075570722 686.3077169132036 393.4355100536197Q684.9515848323093 388.6202584620382 682.6520565212276 385.6524911545737Q680.3525282101458 382.6650697589803 677.3454527264234 381.40720811873047Q674.3383772427012 380.12969239035164 671.0168363489164 380.12969239035164L671.0168363489164 380.12969239035164Q665.4350753203076 380.12969239035164 660.3250124067927 382.29164208453113Q655.2346035814064 384.4339376905817 650.8517419286609 388.05028990629995L650.8517419286609 388.05028990629995ZM637.4083456484906 445.36161089018395L637.4083456484906 347.36632747946874L635.9932513032095 334.6304783719389L650.8517419286609 333.2153840266579L650.8517419286609 378.93079301448853L656.8658928961056 372.484252108208Q660.4822451118239 370.7940005291223 664.4327168257336 369.7916420345482Q668.4028426277721 368.80893762810297 672.3533143416819 368.80893762810297L672.3533143416819 368.80893762810297Q678.2298866922242 368.80893762810297 683.4382200463838 371.20673637982924Q688.6268993124144 373.62418921968447 692.5577169381952 378.3215162824925Q696.4885345639759 383.0188433453006 698.7880628750577 389.89777419041695Q701.0875911861394 396.7570509474045 701.0875911861394 405.6603528697979L701.0875911861394 405.6603528697979Q701.0875911861394 415.42843466986324 698.4342892887374 423.4276485383271Q695.7809873913354 431.42686240679103 691.0050439760117 437.1265479641732Q686.229100560688 442.80657943342646 679.6842892137631 445.9315794459222Q673.139477866838 449.036925370289 665.356458967792 449.036925370289L665.356458967792 449.036925370289Q660.8949809625308 449.036925370289 656.5907356623009 448.72245996022656Q652.266836273942 448.4079945501641 648.5129054413213 447.8773341706837Q644.7589746087007 447.3466737912033 641.8698236537518 446.67843479482053Q638.961018610674 445.9905417103089 637.4083456484906 445.36161089018395L637.4083456484906 445.36161089018395ZM735.7574026455261 371.77670493556747L735.7574026455261 447.8380259944259L722.3140063653558 447.8380259944259L722.3140063653558 373.19179928084856L735.7574026455261 371.77670493556747ZM721.8816164265199 355.8568935511553L721.8816164265199 341.7059500983444L736.189792584362 341.7059500983444L736.189792584362 355.8568935511553L721.8816164265199 355.8568935511553ZM778.2102330039587 333.2153840266579L778.2102330039587 421.2263906678899Q778.2102330039587 425.90406364256904 778.7408933834391 429.04871774319366Q779.2715537629194 432.1933718438183 780.2935663456226 434.1391265685798Q781.3155789283255 436.0848812933413 782.84859780238 436.91035299475527Q784.3619625883057 437.71617060804033 786.347025489325 437.71617060804033L786.347025489325 437.71617060804033Q787.8996984515084 437.71617060804033 789.1772141798872 437.5392838148802Q790.4547299082659 437.36239702172 791.3784720503244 437.0872397879154L791.3784720503244 437.0872397879154Q792.4397928092851 436.79242846598186 793.2849185988281 436.43865487966156L793.2849185988281 436.43865487966156L798.1591324547962 445.0078373038637Q797.589163899058 445.57780585960194 796.350956346937 446.2460448559847Q795.1127487948161 446.9142838523674 793.4224972157303 447.56286876062126Q791.7322456366446 448.19179958074614 789.5702959424652 448.62418951958205Q787.4083462482857 449.036925370289 784.9319311440438 449.036925370289L784.9319311440438 449.036925370289Q778.564006590279 449.036925370289 774.5938807882403 446.69808888294943Q770.6434090743306 444.3789064837388 768.4421512038934 440.3301643291846Q766.2605474215851 436.30107626275924 765.5136920726867 430.9551642916974Q764.7668367237884 425.6289064087644 764.7668367237884 419.53613908880413L764.7668367237884 419.53613908880413L764.7668367237884 348.7814218247498L763.3517423785073 334.6304783719389L778.2102330039587 333.2153840266579ZM820.6630633623913 333.2153840266579L820.6630633623913 421.2263906678899Q820.6630633623913 425.90406364256904 821.1937237418717 429.04871774319366Q821.7243841213522 432.1933718438183 822.7463967040551 434.1391265685798Q823.7684092867581 436.0848812933413 825.3014281608126 436.91035299475527Q826.8147929467382 437.71617060804033 828.7998558477575 437.71617060804033L828.7998558477575 437.71617060804033Q830.352528809941 437.71617060804033 831.6300445383197 437.5392838148802Q832.9075602666985 437.36239702172 833.831302408757 437.0872397879154L833.831302408757 437.0872397879154Q834.8926231677178 436.79242846598186 835.7377489572607 436.43865487966156L835.7377489572607 436.43865487966156L840.6119628132288 445.0078373038637Q840.0419942574906 445.57780585960194 838.8037867053697 446.2460448559847Q837.5655791532488 446.9142838523674 835.875327574163 447.56286876062126Q834.1850759950772 448.19179958074614 832.0231263008977 448.62418951958205Q829.8611766067183 449.036925370289 827.3847615024764 449.036925370289L827.3847615024764 449.036925370289Q821.0168369487116 449.036925370289 817.0467111466729 446.69808888294943Q813.0962394327632 444.3789064837388 810.8949815623259 440.3301643291846Q808.7133777800177 436.30107626275924 807.9665224311193 430.9551642916974Q807.2196670822209 425.6289064087644 807.2196670822209 419.53613908880413L807.2196670822209 419.53613908880413L807.2196670822209 348.7814218247498L805.8045727369399 334.6304783719389L820.6630633623913 333.2153840266579ZM881.5121202094781 438.5023341331965L885.187434689583 422.0911705455617L904.2322460864909 370.00783700396613L916.9680951940209 368.80893762810297L887.663849793825 449.036925370289Q885.4822460115166 454.99211407334695 882.8879063785013 460.84903233576034Q880.3132208336149 466.7256046863026 877.0506422042167 471.36396948472395Q873.8077176629477 476.0023342831453 869.8769000371669 478.89148523809416Q865.9460824113861 481.80029028117195 861.1308308198046 481.80029028117195L861.1308308198046 481.80029028117195Q857.5341326922152 481.80029028117195 854.0553590933991 480.34588775963306Q850.5962395827121 478.89148523809416 847.6874345396343 476.3561078694656L847.6874345396343 476.3561078694656L852.8564597175359 468.7892839398375Q854.0553590933991 469.63440972938037 855.6080320555826 470.34195690202097Q857.1803591058949 471.04950407466146 858.8706106849806 471.04950407466146L858.8706106849806 471.04950407466146Q861.2094471723202 471.04950407466146 863.3910509546286 469.2413279668023Q865.5923088250657 467.4331518589432 867.6166799023429 464.602963168381Q869.621396891491 461.7727744778188 871.3509566468347 458.2350386146161Q873.1001704903072 454.69730275141336 874.5152648355881 451.15956688821063L874.5152648355881 451.15956688821063L844.9948244659744 370.00783700396613L858.4382207461447 368.80893762810297L877.8368057293729 422.0911705455617L881.5121202094781 438.5023341331965ZM997.5498565225271 389.3278056346787L997.5498565225271 436.51727123217717L1009.1457685185804 436.51727123217717Q1015.6709257773765 436.51727123217717 1020.4468691927002 434.3553215379978Q1025.222812608024 432.1933718438183 1028.288850356133 428.3018623942953Q1031.3745421923709 424.41035294477234 1032.8485988020386 418.96617053306596Q1034.3423094998352 413.5219881213595 1034.3423094998352 406.9378685981767L1034.3423094998352 406.9378685981767Q1034.3423094998352 399.99997548867356 1033.0058315070698 394.9488748395453Q1031.6496994261754 389.89777419041695 1029.310862938836 386.59588738476106Q1026.9916805396251 383.3136546672341 1023.9059887033873 381.7216735287929Q1020.8202968671494 380.12969239035164 1017.3611773564623 380.12969239035164L1017.3611773564623 380.12969239035164Q1013.9020578457752 380.12969239035164 1010.8949823620528 381.01412635615236Q1007.8879068783306 381.898560321953 1005.3721835978308 383.2350383147185Q1002.8564603173311 384.5911703956129 1000.8713974163119 386.202805622183Q998.8863345152926 387.834094936882 997.5498565225271 389.3278056346787L997.5498565225271 389.3278056346787ZM997.5498565225271 483.21538462645304L984.1064602423567 483.21538462645304L984.1064602423567 370.00783700396613L997.5498565225271 368.59274265868504L997.5498565225271 381.05343453241017L1004.2715546626123 372.0518621693721Q1006.3155798280184 370.852962793509 1010.1088188368967 369.830950210806Q1013.9020578457752 368.80893762810297 1019.4052025218683 368.80893762810297L1019.4052025218683 368.80893762810297Q1025.2817748724106 368.80893762810297 1030.4508000503124 371.56050996614954Q1035.619825228214 374.331736392325 1039.4720265014794 379.42214521771115Q1043.3242277747445 384.5125540430973 1045.5647938214395 391.725604386405Q1047.7857057800056 398.9386547297128 1047.7857057800056 407.86161074023516L1047.7857057800056 407.86161074023516Q1047.7857057800056 416.56837178133964 1044.9555170894434 423.8796925652919Q1042.1253283988813 431.2106674373731 1036.9169950447217 436.55657940843497Q1031.728315778691 441.9024913794969 1024.3383786422232 444.8702586869614Q1016.9287874176264 447.8380259944259 1007.809290525815 447.8380259944259L1007.809290525815 447.8380259944259L997.5498565225271 447.8380259944259L997.5498565225271 483.21538462645304ZM1102.345454425843 380.75862321047657L1102.345454425843 380.75862321047657Q1099.515265735281 380.75862321047657 1096.7440393091056 381.898560321953Q1093.992466971059 383.0188433453006 1091.4374355143013 384.94494398193314Q1088.9020581456728 386.85139053043684 1086.6221839227198 389.38676789906543Q1084.361963787896 391.941799355823 1082.4555172393923 394.77198804638516L1082.4555172393923 394.77198804638516L1082.4555172393923 447.8380259944259L1069.0121209592219 447.8380259944259L1069.0121209592219 370.00783700396613L1082.4555172393923 368.59274265868504L1082.4555172393923 384.5125540430973L1089.5309889657979 372.13047852188777Q1090.4547311078563 371.56050996614954 1091.8305172768796 370.9708873222824Q1093.2063034459027 370.3616105902864 1094.975171377504 369.9095665633216Q1096.7440393091056 369.4378684482279 1098.7684103863826 369.12340303816546Q1100.7731273755307 368.80893762810297 1102.8957688934524 368.80893762810297L1102.8957688934524 368.80893762810297Q1106.079731170335 368.80893762810297 1108.2416808645144 369.3789061838412Q1110.4036305586937 369.9292206514505 1111.4649513176546 370.440226942802L1111.4649513176546 370.440226942802L1110.7574041450139 382.1737175557577Q1109.6960833860533 381.8199439694374 1107.5734418681316 381.289283589957Q1105.45080035021 380.75862321047657 1102.345454425843 380.75862321047657ZM1172.0978131953234 431.91821461001365L1179.8218698299825 438.71852910261447Q1177.6206119595454 440.9787492374384 1175.0066182384012 442.8851957859421Q1172.392624517257 444.7916423344458 1169.2086622403745 446.167428503469Q1166.024699963492 447.56286876062126 1162.152844602098 448.2900700213907Q1158.3006433288328 449.036925370289 1153.564008089767 449.036925370289L1153.564008089767 449.036925370289Q1144.1496998760217 449.036925370289 1137.5066180884523 445.71538447650425Q1130.843882212754 442.3938435827195 1126.6379073531684 436.79242846598186Q1122.431932493583 431.2106674373731 1120.4861777688216 423.99761709406533Q1118.54042304406 416.7845667507576 1118.54042304406 408.922931499196L1118.54042304406 408.922931499196Q1118.54042304406 403.8914849381966 1119.4641651861184 398.97796290597057Q1120.3879073281769 394.0644408737446 1122.215737524165 389.6029628684834Q1124.063221808282 385.14148486322216 1126.8147941463285 381.3285917662148Q1129.586020572504 377.51569866920744 1133.261335052609 374.74447224303196Q1136.936649532714 371.99289990498545 1141.5750143311357 370.4009187665442Q1146.2133791295569 368.80893762810297 1151.7951401581656 368.80893762810297L1151.7951401581656 368.80893762810297Q1159.440580440309 368.80893762810297 1165.0223414689178 371.28535273234485Q1170.6237565856554 373.7617678365868 1174.2990710657605 378.223245841848Q1177.9743855458655 382.6650697589803 1179.743253477467 388.89541569584287Q1181.5121214090684 395.1257616327054 1181.5121214090684 402.6925855623334L1181.5121214090684 402.6925855623334Q1181.5121214090684 404.89384343277067 1181.374542792166 407.5078371539149Q1181.2369641752637 410.1218308750592 1180.9421528533303 412.46066736239874L1180.9421528533303 412.46066736239874L1131.9838193242304 412.46066736239874Q1131.9838193242304 417.7672711572028 1133.4382218457692 422.3663277793663Q1134.8926243673081 426.9653844015299 1137.5066180884523 430.40484982408805Q1140.1206118095965 433.82466115851736 1143.8352344659593 435.7704158832789Q1147.5498571223222 437.71617060804033 1152.1489137444858 437.71617060804033L1152.1489137444858 437.71617060804033Q1156.6693540141337 437.71617060804033 1160.0302030841763 437.0479316116576Q1163.3910521542189 436.37969261527485 1165.8085049940742 435.41664229695857Q1168.2063037458004 434.4732460667712 1169.7393226198549 433.47088757219706Q1171.2526874057803 432.4881831657519 1172.0978131953234 431.91821461001365L1172.0978131953234 431.91821461001365ZM1142.2432533275182 401.84745977279056L1168.068725128898 401.84745977279056Q1168.1473414814136 401.0612962476344 1168.1669955695425 400.29478681060715Q1168.2063037458004 399.508623285451 1168.2063037458004 398.74211384842374L1168.2063037458004 398.74211384842374Q1168.2063037458004 394.69337169386955 1167.282561603742 391.31286853569804Q1166.378473549812 387.91271128939763 1164.4916810894374 385.39698800889795Q1162.6245427171916 382.8812647283982 1159.7157376741138 381.4661703831171Q1156.8265867191649 380.051076037836 1152.8564609171262 380.051076037836L1152.8564609171262 380.051076037836Q1148.1198256780604 380.051076037836 1144.7589766080177 381.5840949118906Q1141.3981275379754 383.0974596978162 1139.0985992268934 385.47560436141356Q1136.7990709158119 387.834094936882 1135.4232847467883 390.6642836274442Q1134.0278444896362 393.4944723180064 1133.3202973169957 396.0495037747639L1133.3202973169957 396.0495037747639L1129.6449828368907 403.75390632129427L1142.2432533275182 401.84745977279056ZM1240.159920385718 373.7617678365868L1236.0718700549057 382.8223024640115Q1234.794354326527 382.1737175557577 1233.0254863949256 381.5447867356328Q1231.2566184633242 380.89620182737895 1229.3501719148207 380.4048496241563Q1227.424071278188 379.9134974209337 1225.4783165534266 379.6383401871291Q1223.5325618286652 379.34352886519554 1221.7636938970636 379.34352886519554L1221.7636938970636 379.34352886519554Q1214.2754863199511 379.34352886519554 1211.1504863074556 381.5840949118906Q1208.045140383089 383.80500687045674 1208.045140383089 388.26648487571794L1208.045140383089 388.26648487571794Q1208.045140383089 391.23425218318243 1210.0891655484947 393.1800069079439Q1212.1528448020297 395.1257616327054 1215.3957693432988 396.6784345948888Q1218.658347972697 398.2311075570722 1222.6481278628644 399.6265478142244Q1226.6575618411607 401.0023339832477 1230.4704549381681 402.9087805317514L1230.4704549381681 402.9087805317514Q1233.2416813643435 404.2452585245168 1236.0718700549057 406.09274280863383Q1238.902058745468 407.94022709275083 1241.162278880292 410.4166421969927Q1243.4224990151158 412.8930573012346 1244.837593360397 415.9984032256014Q1246.252687705678 419.1037491499683 1246.252687705678 422.99525859949125L1246.252687705678 422.99525859949125Q1246.252687705678 430.1493466784123 1243.8548889539516 435.1021768868961Q1241.4374361140967 440.0550070953799 1237.3100776070269 443.1406989316178Q1233.163065011828 446.2067366797268 1227.600958071348 447.6218310250079Q1222.0585052189972 449.036925370289 1215.749542929619 449.036925370289L1215.749542929619 449.036925370289Q1213.3517441778927 449.036925370289 1210.3053605179125 448.58488134332424Q1207.2589768579326 448.1131832282305 1204.2322472860815 447.30736561494547Q1201.1858636261013 446.5015480016604 1198.4146371999257 445.36161089018395Q1195.6630648618793 444.22167377870755 1193.8155805777624 442.9638121384577L1193.8155805777624 442.9638121384577L1198.4932535524413 433.6084661890994Q1200.183505131527 434.4732460667712 1202.5223416188667 435.20044732754064Q1204.8611781062064 435.947302676439 1207.3375932104482 436.51727123217717Q1209.81400831469 437.0872397879154 1212.2511152426741 437.4017051979779Q1214.6882221706583 437.71617060804033 1216.6143228072908 437.71617060804033L1216.6143228072908 437.71617060804033Q1219.8572473485601 437.71617060804033 1222.8643228322824 437.0479316116576Q1225.8713983160046 436.37969261527485 1228.1709266270864 434.88598191747815Q1230.4704549381681 433.41192530781035 1231.8462411071914 431.033780644213Q1233.2416813643435 428.6556359806156 1233.2416813643435 425.1965164699285L1233.2416813643435 425.1965164699285Q1233.2416813643435 422.58252274878424 1232.141052429125 420.597459847765Q1231.0404234939065 418.61239694674566 1229.1732851216605 417.09903216082006Q1227.2864926612856 415.56601328676555 1224.8100775570438 414.3081516465157Q1222.333662452802 413.03063591813697 1219.5820901147554 411.8513906304027Q1216.81086368858 410.69179943079735 1213.921712733631 409.4535918786764Q1211.0129076905532 408.21538432655547 1208.398913969409 406.72167362875877L1208.398913969409 406.72167362875877Q1205.922498865167 405.3065792834777 1203.6229705540854 403.61632770439195Q1201.3234422430037 401.92607612530617 1199.5545743114021 399.80343460738453Q1197.7857063798008 397.68079308946295 1196.72438562084 395.0274911920609Q1195.6630648618793 392.37418929465883 1195.6630648618793 388.9740320483585L1195.6630648618793 388.9740320483585Q1195.6630648618793 383.5888119010388 1197.5695114103828 379.7366106277736Q1199.4759579588865 375.8844093545084 1202.9547315577024 373.4669565146532Q1206.4138510683897 371.0691577629269 1211.3077190124868 369.9292206514505Q1216.181932868455 368.80893762810297 1222.0585052189972 368.80893762810297L1222.0585052189972 368.80893762810297Q1224.7511152926572 368.80893762810297 1227.3651090138014 369.22167347881Q1229.9791027349456 369.65406341764583 1232.3769014866718 370.32230241402857Q1234.794354326527 370.9905414104113 1236.7794172275462 371.9142835524698Q1238.7448260404367 372.8380256945283 1240.159920385718 373.7617678365868L1240.159920385718 373.7617678365868ZM1310.285706829647 429.5793781226741L1310.285706829647 370.00783700396613L1323.7291031098175 368.59274265868504L1323.7291031098175 447.8380259944259L1310.285706829647 447.8380259944259L1310.285706829647 436.30107626275924L1305.9618074412883 443.86790019238725Q1304.7039458010386 444.7326800700591 1302.9547319575659 445.63676812398865Q1301.2251722022224 446.5605102660471 1299.0435684199142 447.30736561494547Q1296.842310549477 448.0542209638438 1294.2283168283325 448.54557316706644Q1291.6143231071885 449.036925370289 1288.7055180641105 449.036925370289L1288.7055180641105 449.036925370289Q1283.0451406829861 449.036925370289 1278.9767444403033 446.99290020488303Q1274.90834819762 444.9292209513481 1272.2943544764757 441.25390647124306Q1269.6803607553315 437.578591991138 1268.4028450269527 432.5274913420097Q1267.125329298574 427.45673660475245 1267.125329298574 421.52120198982345L1267.125329298574 421.52120198982345L1267.125329298574 370.00783700396613L1280.5687255787443 368.59274265868504L1280.5687255787443 421.52120198982345Q1280.5687255787443 429.1666422719671 1283.6544174149822 433.43157939593925Q1286.7204551630912 437.71617060804033 1293.304574686274 437.71617060804033L1293.304574686274 437.71617060804033Q1295.7023734380004 437.71617060804033 1298.04120992534 436.9496611710131Q1300.3800464126796 436.1634976458569 1302.5813042831169 434.96459826999376Q1304.762908065425 433.76569889413065 1306.7086627901867 432.35060454884956Q1308.6544175149484 430.93551020356847 1310.285706829647 429.5793781226741L1310.285706829647 429.5793781226741ZM1365.4743862956095 388.12890625881556L1365.4743862956095 447.8380259944259L1352.0309900154393 447.8380259944259L1352.0309900154393 370.00783700396613L1365.4743862956095 368.59274265868504L1365.4743862956095 381.5447867356328L1369.7982856839685 373.9779628060047Q1371.0561473242183 373.11318292833295 1372.9822479608508 372.2090948744034Q1374.8886945093545 371.28535273234485 1377.2864932610808 370.53849738344655Q1379.703946100936 369.7916420345482 1382.4555184389826 369.3002898313256Q1385.2070907770292 368.80893762810297 1388.1158958201072 368.80893762810297L1388.1158958201072 368.80893762810297Q1396.0364933360552 368.80893762810297 1400.9893235445388 372.66113890136813Q1405.942153753023 376.51334017463336 1407.4358644508197 382.52749114207796L1407.4358644508197 382.52749114207796L1412.8014305100105 374.2531200398094Q1415.2778456142523 372.2680571387901 1419.817939972029 370.53849738344655Q1424.338380241677 368.80893762810297 1430.214952592219 368.80893762810297L1430.214952592219 368.80893762810297Q1435.600172739539 368.80893762810297 1439.4130658365461 370.61711373596216Q1443.2259589335536 372.4056357556924 1445.6827199496665 375.8057930019928Q1448.1198268776507 379.20595024829316 1449.2401099009983 384.02120183987466Q1450.3800470124747 388.83645343145616 1450.3800470124747 394.77198804638516L1450.3800470124747 394.77198804638516L1450.3800470124747 447.8380259944259L1436.9366507323045 447.8380259944259L1436.9366507323045 395.47953521902565Q1436.9366507323045 391.6666421220183 1436.4059903528241 388.79714525519836Q1435.8753299733435 385.9276483883784 1434.5585060687072 383.98189366361686Q1433.2613362521993 382.03613893885534 1431.0600783817622 381.07308862053907Q1428.8784745994537 380.12969239035164 1425.6158959700558 380.12969239035164L1425.6158959700558 380.12969239035164Q1423.5718708046497 380.12969239035164 1421.3313047579545 380.83723956299224Q1419.1103927993886 381.5447867356328 1416.8501726645645 382.7043779352381Q1414.5702984416116 383.88362322297235 1412.428002835561 385.39698800889795Q1410.2660531413817 386.91035279482355 1408.359606592878 388.48267984513586L1408.359606592878 388.48267984513586Q1408.5561474741671 390.5267050105419 1408.5954556504248 391.9024911795652Q1408.6347638266827 393.27827734858846 1408.6347638266827 395.47953521902565L1408.6347638266827 395.47953521902565L1408.6347638266827 447.8380259944259L1395.1913675465125 447.8380259944259L1395.1913675465125 395.47953521902565Q1395.1913675465125 387.834094936882 1392.6363360897549 383.98189366361686Q1390.100958721126 380.12969239035164 1383.5168391979435 380.12969239035164L1383.5168391979435 380.12969239035164Q1381.3941976800218 380.12969239035164 1378.9963989282955 380.75862321047657Q1376.5789460884403 381.40720811873047 1374.2204555129717 382.52749114207796Q1371.8423108493744 383.6674282535544 1369.5820907145505 385.1218307750933Q1367.3218705797265 386.55657920850325 1365.4743862956095 388.12890625881556L1365.4743862956095 388.12890625881556ZM1525.871399515595 431.91821461001365L1533.5954561502542 438.71852910261447Q1531.394198279817 440.9787492374384 1528.7802045586727 442.8851957859421Q1526.1662108375285 444.7916423344458 1522.982248560646 446.167428503469Q1519.7982862837637 447.56286876062126 1515.9264309223695 448.2900700213907Q1512.0742296491044 449.036925370289 1507.3375944100385 449.036925370289L1507.3375944100385 449.036925370289Q1497.9232861962932 449.036925370289 1491.2802044087239 445.71538447650425Q1484.6174685330257 442.3938435827195 1480.41149367344 436.79242846598186Q1476.2055188138547 431.2106674373731 1474.259764089093 423.99761709406533Q1472.3140093643315 416.7845667507576 1472.3140093643315 408.922931499196L1472.3140093643315 408.922931499196Q1472.3140093643315 403.8914849381966 1473.2377515063902 398.97796290597057Q1474.1614936484486 394.0644408737446 1475.9893238444365 389.6029628684834Q1477.8368081285535 385.14148486322216 1480.5883804666 381.3285917662148Q1483.3596068927757 377.51569866920744 1487.0349213728805 374.74447224303196Q1490.7102358529858 371.99289990498545 1495.3486006514072 370.4009187665442Q1499.9869654498284 368.80893762810297 1505.5687264784372 368.80893762810297L1505.5687264784372 368.80893762810297Q1513.2141667605806 368.80893762810297 1518.7959277891896 371.28535273234485Q1524.397342905927 373.7617678365868 1528.0726573860322 378.223245841848Q1531.7479718661373 382.6650697589803 1533.5168397977386 388.89541569584287Q1535.2857077293402 395.1257616327054 1535.2857077293402 402.6925855623334L1535.2857077293402 402.6925855623334Q1535.2857077293402 404.89384343277067 1535.1481291124378 407.5078371539149Q1535.0105504955354 410.1218308750592 1534.7157391736018 412.46066736239874L1534.7157391736018 412.46066736239874L1485.757405644502 412.46066736239874Q1485.757405644502 417.7672711572028 1487.2118081660408 422.3663277793663Q1488.6662106875797 426.9653844015299 1491.2802044087239 430.40484982408805Q1493.894198129868 433.82466115851736 1497.608820786231 435.7704158832789Q1501.3234434425938 437.71617060804033 1505.9225000647575 437.71617060804033L1505.9225000647575 437.71617060804033Q1510.4429403344052 437.71617060804033 1513.8037894044478 437.0479316116576Q1517.1646384744904 436.37969261527485 1519.5820913143457 435.41664229695857Q1521.9798900660721 434.4732460667712 1523.5129089401266 433.47088757219706Q1525.026273726052 432.4881831657519 1525.871399515595 431.91821461001365L1525.871399515595 431.91821461001365ZM1496.0168396477898 401.84745977279056L1521.8423114491698 401.84745977279056Q1521.9209278016851 401.0612962476344 1521.940581889814 400.29478681060715Q1521.9798900660721 399.508623285451 1521.9798900660721 398.74211384842374L1521.9798900660721 398.74211384842374Q1521.9798900660721 394.69337169386955 1521.0561479240137 391.31286853569804Q1520.1520598700838 387.91271128939763 1518.265267409709 385.39698800889795Q1516.3981290374631 382.8812647283982 1513.4893239943854 381.4661703831171Q1510.6001730394366 380.051076037836 1506.6300472373978 380.051076037836L1506.6300472373978 380.051076037836Q1501.893411998332 380.051076037836 1498.5325629282895 381.5840949118906Q1495.171713858247 383.0974596978162 1492.872185547165 385.47560436141356Q1490.5726572360834 387.834094936882 1489.19687106706 390.6642836274442Q1487.8014308099077 393.4944723180064 1487.0938836372675 396.0495037747639L1487.0938836372675 396.0495037747639L1483.4185691571624 403.75390632129427L1496.0168396477898 401.84745977279056Z " fill="#fffef9" transform="matrix(0.569926489774858,0,0,0.5699264897748579,0,67.34722262949577)"/></g></svg>