<svg xmlns="http://www.w3.org/2000/svg" version="1.1" xmlns:xlink="http://www.w3.org/1999/xlink" xmlns:svgjs="http://svgjs.dev/svgjs" width="100%" height="100%" viewBox="0 0 1000 600"><rect width="1000" height="600" x="0" y="0" fill="#111f4d"/><g><circle r="166.66666666666666" cx="361.68378702799475" cy="383.90595507126966" fill="#4831d4" transform="matrix(0.6409694549432629,0,0,0.6409694549432629,0,53.927988558542324)"/><path d="M313.2441027150368 310.4882299243178L313.2441027150368 362.4033341125418Q313.2441027150368 364.4565802506102 314.2047958622064 364.4565802506102Q315.165489009376 364.4565802506102 322.6438258608727 360.1617167691461L322.6438258608727 360.1617167691461Q331.38424978806285 356.4508040241968 335.96167007751797 356.4508040241968Q340.52025324644046 356.4508040241968 344.7020940047081 359.1068380193128Q348.86509764244306 361.744034893896 351.78485132501737 366.05773549589287L351.78485132501737 366.05773549589287Q357.94458973922247 374.93001926681217 357.94458973922247 387.5697271442789Q357.94458973922247 400.22827214227834 349.16649157096685 409.92938921663807Q340.38839340271124 419.6305062909978 326.0156704362327 419.6305062909978L326.0156704362327 419.6305062909978Q316.6912957725277 419.6305062909978 308.7985422693108 417.3700518270693L308.7985422693108 417.3700518270693Q306.4815764437841 416.71075260842355 304.8615840779687 416.315173077236Q303.2415917121533 415.91959354604853 303.0720576273586 415.4863397737956Q302.90252354256404 415.0530860015426 302.90252354256404 414.4691352650278L302.90252354256404 414.4691352650278L302.90252354256404 325.2000210603856Q302.90252354256404 322.4121272215405 299.8697471367933 321.35724847170724L299.8697471367933 321.35724847170724Q298.532311578969 320.8863204583888 297.02534193634995 320.58492652986496Q295.49953517319824 320.28353260134116 294.59535338762686 320.01981291388284Q293.7100087225882 319.7560932264245 293.46512615566263 319.5300477800317Q293.2390807092698 319.30400233363883 293.2390807092698 318.5316803917966Q293.2390807092698 317.7781955704871 294.23744809750485 317.2507561955705L294.23744809750485 317.2507561955705L311.1155080948375 309.3014913307553Q311.9255042777452 308.9059117995679 312.11387548307255 308.9059117995679L312.11387548307255 308.9059117995679Q313.2441027150368 308.9059117995679 313.2441027150368 310.4882299243178L313.2441027150368 310.4882299243178ZM327.2777575119261 364.53192873274116L327.2777575119261 364.53192873274116Q321.3817387851793 364.53192873274116 314.03526177741173 368.7702808526071L314.03526177741173 368.7702808526071Q313.2441027150368 369.2412088659255 313.2441027150368 370.352598977357L313.2441027150368 370.352598977357L313.2441027150368 401.6787304232991Q313.90340193368263 407.7066089937751 318.4808222231378 411.07845356913504Q323.0394053920602 414.4691352650278 328.4833332260213 414.4691352650278L328.4833332260213 414.4691352650278Q338.01491621558637 414.4691352650278 343.21396148262187 406.91544993140013Q348.41300674965737 399.36176459777244 348.41300674965737 389.6983217644782Q348.41300674965737 380.034878931184 343.10093875942545 372.2739852716962Q337.80770788972626 364.53192873274116 327.2777575119261 364.53192873274116ZM419.73034508660083 410.89008236380766L419.73034508660083 410.89008236380766Q410.5943416282232 419.6305062909978 399.1978837059172 419.6305062909978L399.1978837059172 419.6305062909978Q395.0913914297804 419.6305062909978 388.00863410947125 418.1046995278461L388.00863410947125 418.1046995278461Q386.878406877507 418.1046995278461 386.7842212748433 418.89585859022105Q386.6900356721796 419.687017652596 386.61468719004864 420.5535251971019L386.61468719004864 420.5535251971019L386.61468719004864 448.8280431167406Q386.61468719004864 453.80104293738333 392.37884607306626 455.4587095442642L392.37884607306626 455.4587095442642Q394.90302022445303 456.11800876290994 397.0881262062506 456.41940269143373Q399.27323218804815 456.7207966199576 399.8948571656284 456.9845163074159Q400.5353192637415 457.2482359948742 400.5353192637415 458.00172081618365Q400.5353192637415 458.7740427580259 399.85718292456295 458.9059026017551L399.85718292456295 458.9059026017551L366.6850136664126 458.9059026017551Q366.02571444776675 458.7740427580259 366.02571444776675 457.96404657511823L366.02571444776675 457.96404657511823Q366.02571444776675 456.7773079815558 369.1338393356684 456.3817284503683L369.1338393356684 456.3817284503683Q376.29194513810864 455.326849700535 376.29194513810864 448.8280431167406L376.29194513810864 448.8280431167406L376.29194513810864 369.4295800712529Q376.29194513810864 366.6416862324077 373.2403316118051 365.58680748257444L373.2403316118051 365.58680748257444Q371.9217331745135 365.13471658978875 370.39592641136187 364.83332266126496Q368.8701196482101 364.53192873274116 367.9847749831714 364.26820904528284Q367.0805931976 364.0044893578245 366.8545477512072 363.75960679089894Q366.62850230481433 363.5335613445061 366.62850230481433 362.78007652319656Q366.62850230481433 362.00775458135433 367.60803257251666 361.4803152064377L367.60803257251666 361.4803152064377L384.504929690382 353.3991904978934Q385.03236906529867 353.1354708104351 385.55980844021536 353.1354708104351L385.55980844021536 353.1354708104351Q386.61468719004864 353.1354708104351 386.61468719004864 354.73662605571775L386.61468719004864 354.73662605571775L386.61468719004864 363.1379818133186Q386.61468719004864 363.87262951409537 387.38700913189086 363.87262951409537Q388.14049395320035 363.87262951409537 391.06024763577466 361.9512432197561L391.06024763577466 361.9512432197561Q399.4616033933755 356.5261525063278 408.5410954901549 356.5261525063278L408.5410954901549 356.5261525063278Q414.8892051096874 356.5261525063278 420.20127309991926 361.6875235322978L420.20127309991926 361.6875235322978Q427.1521705764994 368.4312126830178 429.46913640202604 380.4869698239697L429.46913640202604 380.4869698239697Q430.1284356206719 383.93416288146057 430.1284356206719 387.81460971120447Q430.1284356206719 391.67621942041563 428.86634854497845 395.9899200224125L428.86634854497845 395.9899200224125Q426.3610115141244 404.52313562374246 419.73034508660083 410.89008236380766ZM400.79903895119986 363.40170150077694L400.79903895119986 363.40170150077694Q391.77605821601867 363.40170150077694 386.61468719004864 368.5630725267469L386.61468719004864 368.5630725267469L386.61468719004864 405.7852226994359Q386.61468719004864 409.10055591319764 387.7449144220129 410.0989233014327L387.7449144220129 410.0989233014327Q390.6646681045871 412.6042603322868 396.6925466750631 413.99820725170935L396.6925466750631 413.99820725170935Q408.5976068517531 416.71075260842355 415.22827327927666 408.3093968508227L415.22827327927666 408.3093968508227Q419.93755341246094 402.28151828034675 419.93755341246094 393.729465558484L419.93755341246094 393.729465558484Q419.93755341246094 377.1151252486097 412.44037944043146 368.8267922142052L412.44037944043146 368.8267922142052Q407.93830763310734 363.7972810319644 400.79903895119986 363.40170150077694Z " fill="#ffffff" transform="matrix(0.6409694549432629,0,0,0.6409694549432629,0,53.927988558542324)"/><path d="M631.5144578870006 310.47443391887896L631.5144578870006 361.93714904111164Q631.5144578870006 363.9725031587907 632.4667795383916 363.9725031587907Q633.4191011897827 363.9725031587907 640.832271691788 359.7150651878657L640.832271691788 359.7150651878657Q649.4965314220913 356.0364893971982 654.0340639963665 356.0364893971982Q658.552923597085 356.0364893971982 662.69832372667 358.6693786686912Q666.825050882698 361.28359496662756 669.7193617839846 365.5597059111092L669.7193617839846 365.5597059111092Q675.8254241370217 374.3546764563093 675.8254241370217 386.8842417128471Q675.8254241370217 399.4324799429416 667.123818459605 409.049061324636Q658.4222127821884 418.66564270633046 644.1747339584351 418.66564270633046L644.1747339584351 418.66564270633046Q634.9316120478745 418.66564270633046 627.1076361276221 416.42488587952784L627.1076361276221 416.42488587952784Q624.8108603801495 415.77133180504376 623.2049846542743 415.3791993603533Q621.5991089283991 414.98706691566287 621.431052166389 414.557588523859Q621.2629954043787 414.1281101320552 621.2629954043787 413.5492479517979L621.2629954043787 413.5492479517979L621.2629954043787 325.0580262666524Q621.2629954043787 322.2944261802626 618.2566466617519 321.248739661088L618.2566466617519 321.248739661088Q616.930865539227 320.78191532217085 615.437027654692 320.4831477452638Q613.9245167966003 320.18438016835677 613.0282140658792 319.92295853856314Q612.1505843087149 319.6615369087695 611.907835652478 319.4374612260893Q611.6837599697976 319.213385543409 611.6837599697976 318.4477936275848Q611.6837599697976 317.7008746853173 612.6734275683021 317.17803142573L612.6734275683021 317.17803142573L629.4044118750949 309.29803658480756Q630.2073497380325 308.9059041401171 630.3940794735993 308.9059041401171L630.3940794735993 308.9059041401171Q631.5144578870006 308.9059041401171 631.5144578870006 310.47443391887896L631.5144578870006 310.47443391887896ZM645.4258231867333 364.04719505301745L645.4258231867333 364.04719505301745Q639.5811824634899 364.04719505301745 632.2987227763815 368.24861410327225L632.2987227763815 368.24861410327225Q631.5144578870006 368.71543844218945 631.5144578870006 369.8171438820341L631.5144578870006 369.8171438820341L631.5144578870006 400.87029890680657Q632.1680119614846 406.8456504449468 636.7055445357598 410.188112711594Q641.2244041364784 413.5492479517979 646.6208934943613 413.5492479517979L646.6208934943613 413.5492479517979Q656.0694181140456 413.5492479517979 661.2231588156915 406.0613855555659Q666.3768995173375 398.5735231593339 666.3768995173375 388.99428772475284Q666.3768995173375 379.4150522901718 661.1111209743514 371.72178718481626Q655.8640154049219 364.04719505301745 645.4258231867333 364.04719505301745ZM716.9246389352925 416.89171021844504L687.6454163984054 416.89171021844504Q686.9918623239213 416.7609994035482 686.9918623239213 415.97673451416733L686.9918623239213 415.97673451416733Q686.9918623239213 414.7816642065393 690.0729029607749 414.38953176184884L690.0729029607749 414.38953176184884Q697.1686329123163 413.3438452426743 697.1686329123163 406.92034233917354L697.1686329123163 406.92034233917354L697.1686329123163 372.18861152373347Q697.1686329123163 369.42501143734364 694.1436111961328 368.37932491816906L694.1436111961328 368.37932491816906Q692.8365030471647 367.91250057925186 691.3239921890729 367.6324059759016Q689.8114813309812 367.33363839899454 688.9151786002601 367.0722167692009Q688.0375488430958 366.8107951394073 687.8134731604155 366.56804648317035Q687.5707245041785 366.34397080049007 687.5707245041785 365.5970518582225Q687.5707245041785 364.83145994239834 688.5603921026831 364.3086166828111L688.5603921026831 364.3086166828111L705.2913764094757 356.4286218418886Q706.0943142724133 356.0364893971982 706.2810440079802 356.0364893971982L706.2810440079802 356.0364893971982Q707.4014224213815 356.0364893971982 707.4014224213815 357.60501917595997L707.4014224213815 357.60501917595997L707.4014224213815 406.92034233917354Q707.4014224213815 413.3438452426743 714.497152372923 414.38953176184884L714.497152372923 414.38953176184884Q717.5781930097766 414.7816642065393 717.5781930097766 415.77133180504376Q717.5781930097766 416.7609994035482 716.9246389352925 416.89171021844504L716.9246389352925 416.89171021844504ZM701.3327060154578 337.5875915231902Q698.6064518761814 337.5875915231902 696.5337518113889 335.88835092953155Q694.4610517465966 334.17043736231625 694.4610517465966 331.1267426725761Q694.4610517465966 328.0643750092792 696.4403869436055 326.29044252139386Q698.4010491670577 324.53518300706514 701.1273033063342 324.53518300706514Q703.8535574456107 324.53518300706514 705.7208548012795 326.62655604541425Q707.6068251305051 328.73660205732 707.6068251305051 331.1640886196895Q707.6068251305051 333.59157518205893 705.8328926426196 335.5895833526246Q704.0589601547342 337.5875915231902 701.3327060154578 337.5875915231902ZM749.6770345537236 414.38953176184884L749.6770345537236 414.38953176184884Q752.7580751905772 414.7816642065393 752.7580751905772 415.97673451416733L752.7580751905772 415.97673451416733Q752.7580751905772 416.7609994035482 752.1045211160931 416.89171021844504L752.1045211160931 416.89171021844504L722.825298579206 416.89171021844504Q722.1717445047218 416.7609994035482 722.1717445047218 415.97673451416733L722.1717445047218 415.97673451416733Q722.1717445047218 414.7816642065393 725.2527851415754 414.38953176184884L725.2527851415754 414.38953176184884Q732.3485150931169 413.3438452426743 732.3485150931169 406.92034233917354L732.3485150931169 406.92034233917354L732.3485150931169 325.0580262666524Q732.3485150931169 322.2944261802626 729.3234933769335 321.248739661088L729.3234933769335 321.248739661088Q728.0163852279653 320.78191532217085 726.5038743698735 320.4831477452638Q724.9913635117817 320.18438016835677 724.1137337546174 319.92295853856314Q723.2174310238964 319.6615369087695 722.9933553412161 319.4374612260893Q722.7692796585359 319.213385543409 722.7692796585359 318.4477936275848Q722.7692796585359 317.7008746853173 723.7402742834837 317.17803142573L723.7402742834837 317.17803142573L740.489931563833 309.29803658480756Q741.2741964532139 308.9059041401171 741.4795991623375 308.9059041401171L741.4795991623375 308.9059041401171Q742.5813046021821 308.9059041401171 742.5813046021821 310.47443391887896L742.5813046021821 310.47443391887896L742.5813046021821 406.92034233917354Q742.5813046021821 413.3438452426743 749.6770345537236 414.38953176184884ZM783.8859221095764 414.38953176184884L783.8859221095764 414.38953176184884Q786.96696274643 414.7816642065393 786.96696274643 415.97673451416733L786.96696274643 415.97673451416733Q786.96696274643 416.7609994035482 786.3134086719458 416.89171021844504L786.3134086719458 416.89171021844504L757.0341861350588 416.89171021844504Q756.3806320605746 416.7609994035482 756.3806320605746 415.97673451416733L756.3806320605746 415.97673451416733Q756.3806320605746 414.7816642065393 759.4616726974282 414.38953176184884L759.4616726974282 414.38953176184884Q766.5574026489697 413.3438452426743 766.5574026489697 406.92034233917354L766.5574026489697 406.92034233917354L766.5574026489697 325.0580262666524Q766.5574026489697 322.2944261802626 763.5323809327863 321.248739661088L763.5323809327863 321.248739661088Q762.2252727838181 320.78191532217085 760.7127619257263 320.4831477452638Q759.2002510676346 320.18438016835677 758.3039483369135 319.92295853856314Q757.4263185797492 319.6615369087695 757.2022428970689 319.4374612260893Q756.959494240832 319.213385543409 756.959494240832 318.4477936275848Q756.959494240832 317.7008746853173 757.9491618393365 317.17803142573L757.9491618393365 317.17803142573L774.6801461461291 309.29803658480756Q775.4830840090667 308.9059041401171 775.6698137446335 308.9059041401171L775.6698137446335 308.9059041401171Q776.7901921580349 308.9059041401171 776.7901921580349 310.47443391887896L776.7901921580349 310.47443391887896L776.7901921580349 406.92034233917354Q776.7901921580349 413.3438452426743 783.8859221095764 414.38953176184884ZM833.0518614843365 357.81042188508354L857.9242622618451 357.81042188508354Q858.652508230556 357.9971516206504 858.652508230556 358.72539758936125Q858.652508230556 359.4536435580721 858.5217974156592 359.67771924075237Q858.3910866007624 359.90179492343265 857.9055892882885 360.0698516854428Q857.4014190022579 360.23790844745304 856.5237892450936 360.36861926234985Q855.6274865143725 360.49933007724667 853.7228432115903 360.8541165748237Q851.8181999088082 361.2275760459575 850.3056890507164 363.5243517934301Q848.8118511661813 365.8211275409028 847.093937598966 369.89183577626085L847.093937598966 369.89183577626085L816.2461852833171 446.37633546445574L811.9700743388355 455.4327276394495Q810.3268526658469 458.90590072099354 805.0797470964176 458.90590072099354L805.0797470964176 458.90590072099354Q802.7829713489449 458.90590072099354 801.4011713057499 457.39338986290176Q800.0380442361118 455.8808790048101 800.0380442361118 453.82685191357433Q800.0380442361118 451.754151848782 801.0463848081729 450.80183019739087Q802.0733983537907 449.84950854599975 803.436525423429 449.25197339218573Q804.818325466624 448.6731112119284 806.2934903776022 448.16894092589786Q807.7686552885807 447.6834436134239 809.6172796706928 445.9468570726519Q811.4472310792482 444.2102705318799 811.7833446032686 443.3513137482723L811.7833446032686 443.3513137482723Q822.8003990017146 418.66564270633046 822.8003990017146 417.5452642929292Q822.8003990017146 416.42488587952784 821.4932908527464 414.7816642065393L821.4932908527464 414.7816642065393L799.8326415269881 369.55572225224046Q797.4051549646186 362.9268166396161 791.4858223471485 361.02217333683393L791.4858223471485 361.02217333683393Q791.037670981788 360.8914625219371 790.3841169073039 360.83544360126706L790.3841169073039 360.83544360126706Q787.6205168209141 360.5740219714734 787.6205168209141 359.19222192827846Q787.6205168209141 357.81042188508354 789.1890465996759 357.81042188508354L789.1890465996759 357.81042188508354L818.412250215893 357.81042188508354Q818.9350934754801 357.81042188508354 818.9350934754801 358.8187624571447Q818.9350934754801 359.8457760027626 818.0201177712024 360.20056250033963Q817.1051420669248 360.5740219714734 813.9494095358444 360.5740219714734L813.9494095358444 360.5740219714734Q808.8890337019819 360.5740219714734 808.8890337019819 364.5140193919346L808.8890337019819 364.5140193919346L809.4865688557959 366.08254917069644L826.4789747923822 402.51352057979517Q827.8047559149071 405.8559828464424 829.1118640638753 402.32679084422824L829.1118640638753 402.32679084422824Q829.2425748787721 401.99067732020785 830.7550857368637 398.0506798997466L830.7550857368637 398.0506798997466Q839.6807670969608 375.40036297548386 840.7637995632488 371.8524979997131Q841.8468320295367 368.30463302394236 841.8468320295367 366.54937350961364Q841.8468320295367 364.7754410217282 839.9795346738679 362.7961058247193Q838.112237318199 360.83544360126706 834.8631399193353 360.83544360126706Q831.6140425204715 360.83544360126706 831.6140425204715 358.9308002984848L831.6140425204715 358.9308002984848Q831.6140425204715 357.81042188508354 833.0518614843365 357.81042188508354L833.0518614843365 357.81042188508354ZM950.4301732616786 410.0013829760271L950.4301732616786 410.0013829760271Q941.3737810866847 418.66564270633046 930.0766320848884 418.66564270633046L930.0766320848884 418.66564270633046Q926.0059238495304 418.66564270633046 918.9848857922157 417.15313184823873L918.9848857922157 417.15313184823873Q917.8645073788143 417.15313184823873 917.7711425110309 417.9373967376196Q917.6777776432475 418.7216616270005 917.6030857490207 419.58061841060817L917.6030857490207 419.58061841060817L917.6030857490207 447.6087517191972Q917.6030857490207 452.5384167381629 923.3170156573674 454.1816384111514L923.3170156573674 454.1816384111514Q925.8005211404068 454.8351924856355 927.9665860729826 455.1339600625425Q930.1326510055585 455.4327276394495 930.767532106486 455.69414926924316Q931.3837402338565 455.9555708990368 931.3837402338565 456.70248984130427Q931.3837402338565 457.4680817571286 930.7301861593726 457.5987925720254L930.7301861593726 457.5987925720254L897.8470797260445 457.5987925720254Q897.1935256515605 457.4680817571286 897.1935256515605 456.665143894191L897.1935256515605 456.665143894191Q897.1935256515605 455.48874656011964 900.274566288414 455.0966141154292L900.274566288414 455.0966141154292Q907.3702962399556 454.0509275962546 907.3702962399556 447.6087517191972L907.3702962399556 447.6087517191972L907.3702962399556 368.9021681777563Q907.3702962399556 366.1385680913665 904.3452745237721 365.09288157219197L904.3452745237721 365.09288157219197Q903.038166374804 364.6447302068314 901.5256555167122 364.34596262992443Q900.0131446586204 364.04719505301745 899.1168419278994 363.78577342322376Q898.2392121707351 363.5243517934301 898.0151364880547 363.2816031371932Q897.7723878318178 363.0575274545129 897.7723878318178 362.31060851224544Q897.7723878318178 361.5450165964212 898.7620554303223 361.02217333683393L898.7620554303223 361.02217333683393L915.5117127106716 353.01146768101466Q916.0345559702589 352.75004605122103 916.5573992298462 352.75004605122103L916.5573992298462 352.75004605122103Q917.6030857490207 352.75004605122103 917.6030857490207 354.3372488035395L917.6030857490207 354.3372488035395L917.6030857490207 362.6653950098225Q917.6030857490207 363.3936409785333 918.3500046912882 363.3936409785333Q919.1155966071125 363.3936409785333 922.0099075083992 361.48899767575114L922.0099075083992 361.48899767575114Q930.338053714682 356.11118129142494 939.3384269690058 356.11118129142494L939.3384269690058 356.11118129142494Q945.6312190576098 356.11118129142494 950.8783246270391 361.2275760459575L950.8783246270391 361.2275760459575Q957.7873248430137 367.91250057925186 960.0841005904864 379.86320365553235L960.0841005904864 379.86320365553235Q960.7376546649705 383.28035781640625 960.7376546649705 387.12699036908407Q960.7376546649705 390.9549499482051 959.4865654366724 395.23106089268674L959.4865654366724 395.23106089268674Q956.9843869800761 403.6899179138665 950.4301732616786 410.0013829760271ZM931.6451618636503 362.9268166396161L931.6451618636503 362.9268166396161Q922.7194805035533 362.9268166396161 917.6030857490207 368.04321139414867L917.6030857490207 368.04321139414867L917.6030857490207 404.9410071421646Q917.6030857490207 408.22745048814176 918.723464162422 409.2171180866462L918.723464162422 409.2171180866462Q921.599102090152 411.7006235696857 927.5744536282923 413.08242361288063L927.5744536282923 413.08242361288063Q939.3944458896758 415.77133180504376 945.9673325816301 407.4431855987608L945.9673325816301 407.4431855987608Q950.6169029972455 401.4678340606206 950.6169029972455 392.9903040658841L950.6169029972455 392.9903040658841Q950.6169029972455 376.52074138888514 943.2037324952403 368.30463302394236L943.2037324952403 368.30463302394236Q938.7408918151917 363.31894908430655 931.6451618636503 362.9268166396161ZM1012.4617914169969 369.8171438820341L1012.4617914169969 369.8171438820341Q1011.6775265276159 369.6864330671373 1010.1650156695241 368.97686007198314L1010.1650156695241 368.97686007198314Q1004.7125073909713 366.4746816153869 1001.6314667541177 366.4746816153869Q998.5504261172641 366.4746816153869 995.1706179035035 370.32131416806465Q991.7908096897429 374.14927374718576 991.7908096897429 377.248987357596L991.7908096897429 377.248987357596L991.7908096897429 406.92034233917354Q991.7908096897429 411.8313343845826 997.5047395980896 413.47455605757114L997.5047395980896 413.47455605757114Q999.9882450811292 414.1281101320552 1002.154310013705 414.4268777089622Q1004.3203749462808 414.72564528586923 1004.9552560472082 414.98706691566287Q1005.571464174579 415.2484885454565 1005.571464174579 416.0140804612807Q1005.571464174579 416.7609994035482 1004.9179101000948 416.89171021844504L1004.9179101000948 416.89171021844504L972.0161306932102 416.89171021844504Q971.362576618726 416.7609994035482 971.362576618726 415.97673451416733L971.362576618726 415.97673451416733Q971.362576618726 414.7816642065393 974.4622902291362 414.38953176184884L974.4622902291362 414.38953176184884Q981.5393472071212 413.3438452426743 981.5393472071212 406.92034233917354L981.5393472071212 406.92034233917354L981.5393472071212 372.18861152373347Q981.5393472071212 369.42501143734364 978.5329984644943 368.37932491816906L978.5329984644943 368.37932491816906Q977.2072173419695 367.91250057925186 975.6947064838778 367.6324059759016Q974.1821956257861 367.33363839899454 973.3045658686217 367.0722167692009Q972.4269361114573 366.8107951394073 972.1841874552204 366.56804648317035Q971.9601117725401 366.34397080049007 971.9601117725401 365.5970518582225Q971.9601117725401 364.83145994239834 972.9497793710445 364.3086166828111L972.9497793710445 364.3086166828111L989.6807636778373 356.4286218418886Q990.4650285672182 356.0364893971982 990.6704312763418 356.0364893971982L990.6704312763418 356.0364893971982Q991.7908096897429 356.0364893971982 991.7908096897429 357.60501917595997L991.7908096897429 357.60501917595997L991.7908096897429 368.24861410327225Q991.7908096897429 369.0328789926532 992.1829421344335 369.0328789926532L992.1829421344335 369.0328789926532Q992.7057853940207 369.0328789926532 994.8718503265966 365.9518383557996L994.8718503265966 365.9518383557996Q1001.1086234945304 357.2128867312695 1005.1793317298884 357.2128867312695L1005.1793317298884 357.2128867312695Q1007.4761074773611 357.2128867312695 1012.2377157343167 359.06151111338164Q1016.999323991272 360.8914625219371 1016.999323991272 362.1425517502352L1016.999323991272 362.1425517502352Q1016.999323991272 363.65506260832694 1015.4868131331804 366.7361032451805Q1013.9743022750886 369.8171438820341 1012.4617914169969 369.8171438820341ZM1070.2359716013902 382.2906902179018L1032.161778519303 382.2906902179018Q1031.0414001059016 382.2906902179018 1031.0414001059016 387.08964442197066L1031.0414001059016 387.08964442197066Q1031.0414001059016 397.26641501036573 1037.0727705647118 404.1567422527837Q1043.122813997079 411.04706949520164 1052.0858413042893 411.04706949520164Q1061.0488686114995 411.04706949520164 1069.3209958971124 403.29778546917606L1069.3209958971124 403.29778546917606Q1069.4517067120094 403.16707465427925 1069.6384364475762 403.16707465427925L1069.6384364475762 403.16707465427925L1069.9745499715966 403.16707465427925Q1070.366682416287 403.16707465427925 1070.721468913864 403.8019557552066Q1071.0949283849977 404.41816388257735 1071.4123689354615 404.6235665917009L1071.4123689354615 404.6235665917009Q1063.7937957243328 413.8666885022616 1053.486314321041 417.41455347803236L1053.486314321041 417.41455347803236Q1049.9571223188268 418.66564270633046 1045.4756086652217 418.66564270633046Q1041.012767985173 418.66564270633046 1036.4192164902279 416.2008101968476Q1031.8256649952825 413.73597768736477 1028.5392216493055 409.7399613462335L1028.5392216493055 409.7399613462335Q1021.5928754862174 401.39314216639383 1021.5928754862174 388.9569417776395Q1021.5928754862174 376.52074138888514 1029.1741027502328 366.2692789062633Q1036.7553300142483 356.0364893971982 1050.013141239497 356.0364893971982L1050.013141239497 356.0364893971982Q1059.5363577534079 356.0364893971982 1065.567728212218 364.5326923654913Q1071.617771644585 373.0475683073411 1071.617771644585 379.4710712108419L1071.617771644585 379.4710712108419Q1071.617771644585 382.2906902179018 1070.2359716013902 382.2906902179018L1070.2359716013902 382.2906902179018ZM1032.871351514457 375.213633239917L1032.871351514457 375.9978981292979Q1032.871351514457 377.248987357596 1034.0664218220852 377.248987357596L1034.0664218220852 377.248987357596L1058.808111784697 377.248987357596Q1060.5260253519123 377.248987357596 1060.5260253519123 375.213633239917L1060.5260253519123 375.213633239917Q1060.5260253519123 370.47069795651817 1056.287260354544 365.52235996399577Q1052.0484953571759 360.5740219714734 1046.9881195233133 360.5740219714734L1046.9881195233133 360.5740219714734Q1042.0771274779042 360.5740219714734 1038.025092216103 365.0368626515219Q1033.9917299278584 369.4997033315704 1032.871351514457 375.213633239917L1032.871351514457 375.213633239917ZM1114.4722459571847 365.9518383557996L1114.4722459571847 371.9832088146099Q1114.4722459571847 373.43970075203157 1113.3892134908967 373.43970075203157Q1112.3061810246088 373.43970075203157 1111.7273188443514 371.8524979997131L1111.7273188443514 371.8524979997131Q1110.140116092033 367.5203681345614 1107.021729508066 364.17790586791426Q1103.903342924099 360.83544360126706 1099.3097914291538 360.83544360126706L1099.3097914291538 360.83544360126706Q1093.2784209703434 360.83544360126706 1091.1683749584377 366.86681406007733L1091.1683749584377 366.86681406007733Q1090.5148208839537 368.9021681777563 1090.5148208839537 371.0682331103322Q1090.5148208839537 373.23429804290805 1093.2784209703434 375.88586028795777Q1096.0233480831766 378.5560955065642 1102.3348131453372 382.2346712972317Q1108.6276052339413 385.9132470878993 1111.521916135228 388.4714444651656L1111.521916135228 388.4714444651656Q1118.094802827182 394.316085188409 1118.094802827182 401.99067732020785Q1118.094802827182 409.6652694520067 1112.4368918395055 414.16545607916856Q1106.7976538253856 418.66564270633046 1099.3097914291538 418.66564270633046L1099.3097914291538 418.66564270633046Q1095.3137750880223 418.66564270633046 1092.0646776891588 417.5826102400425Q1088.815580290295 416.4995777737546 1088.3114100042644 416.4995777737546Q1087.8259126917906 416.4995777737546 1086.7428802255026 417.5826102400425Q1085.6598477592147 418.66564270633046 1085.0062936847305 418.66564270633046L1085.0062936847305 418.66564270633046L1083.8859152713294 418.66564270633046Q1083.4937828266388 418.66564270633046 1082.8962476728248 411.5699127547889Q1082.3173854925674 404.4928557768041 1082.3173854925674 403.16707465427925Q1082.3173854925674 401.85996650531104 1082.5414611752478 401.7292556904142Q1082.765536857928 401.5985448755174 1083.2883801175153 401.5985448755174Q1083.8298963506593 401.5985448755174 1084.1846828482362 401.9159854259811Q1084.5394693458134 402.2520989500015 1084.800890975607 402.7375962624754Q1085.0623126054006 403.24176654850595 1085.2303693674107 403.7646098080932Q1085.398426129421 404.28745306768053 1086.0519802039053 405.7252720315455L1086.0519802039053 405.7252720315455Q1090.5148208839537 415.2484885454565 1099.832634688741 415.2484885454565L1099.832634688741 415.2484885454565Q1103.9780348183258 415.2484885454565 1106.4615403013654 412.20479385571633Q1108.9637187579615 409.14242619241946 1108.9637187579615 405.4078314810818Q1108.9637187579615 401.65456379618746 1107.0030565345094 399.0963664189212Q1105.0237213375003 396.5381690416549 1102.110737462657 394.44679600330585Q1099.179080614257 392.33674999140004 1095.761926453383 390.3760877679478L1095.761926453383 390.3760877679478Q1082.5041152281344 382.6268037419222 1082.5041152281344 373.23429804290805L1082.5041152281344 373.23429804290805Q1082.5041152281344 366.21325998559325 1088.5541586605013 361.1155382046174Q1094.5855291193116 356.0364893971982 1100.9530131021422 356.0364893971982Q1107.320497084973 356.0364893971982 1110.3828647482699 357.4182894403931Q1113.42655943801 358.800089483588 1113.9494026975972 359.7524111349791Q1114.4722459571847 360.70473278637024 1114.4722459571847 365.9518383557996L1114.4722459571847 365.9518383557996ZM1172.5078477713714 417.0224210333419L1172.5078477713714 411.1217613894284Q1172.1904072209077 410.0013829760271 1171.648890987764 410.3561694736042Q1171.1260477281767 410.72962894473795 1167.391453016839 412.6155992739635L1167.391453016839 412.6155992739635Q1155.1233093900948 418.7216616270005 1146.907201025152 418.7216616270005Q1138.709765633766 418.7216616270005 1135.0872087637686 413.47455605757114L1135.0872087637686 413.47455605757114Q1133.7801006148002 411.51389383411885 1133.7801006148002 408.6195829328322L1133.7801006148002 408.6195829328322L1133.7801006148002 368.566054653736Q1133.5746979056767 366.68008432451046 1132.0808600211417 365.29828428131555L1132.0808600211417 365.29828428131555Q1130.0455059034625 363.5803707141002 1127.8420950237733 363.44965989920337Q1125.6386841440842 363.31894908430655 1125.6386841440842 362.10520580312186Q1125.6386841440842 360.8914625219371 1126.6843706632587 360.6300408921435L1126.6843706632587 360.6300408921435L1141.7161143763926 356.2979110269918Q1142.5190522393302 356.0364893971982 1143.2659711815977 356.0364893971982Q1144.0128901238654 356.0364893971982 1144.0128901238654 357.15686781059946L1144.0128901238654 357.15686781059946L1144.0128901238654 401.20641243082696Q1144.0128901238654 405.79996392577226 1148.0835983592233 408.2834694088118Q1152.1543065945814 410.785647865408 1158.5031176038553 410.785647865408Q1164.8332556395726 410.785647865408 1169.893631473435 406.92034233917354L1169.893631473435 406.92034233917354Q1171.462161252197 405.66925311087545 1172.5078477713714 404.1567422527837L1172.5078477713714 404.1567422527837L1172.5078477713714 368.566054653736Q1172.3211180358048 366.68008432451046 1170.808607177713 365.29828428131555L1170.808607177713 365.29828428131555Q1168.7732530600338 363.5803707141002 1166.5698421803445 363.44965989920337Q1164.3664313006554 363.31894908430655 1164.3664313006554 362.10520580312186Q1164.3664313006554 360.8914625219371 1165.41211781983 360.6300408921435L1165.41211781983 360.6300408921435L1180.4625345065206 356.2979110269918Q1181.2467993959017 356.0364893971982 1181.993718338169 356.0364893971982Q1182.7593102539934 356.0364893971982 1182.7593102539934 357.34359754616634L1182.7593102539934 357.34359754616634L1182.7593102539934 403.95133954366014Q1183.076750804457 406.8456504449468 1184.402531926982 408.09673967324494Q1185.7096400759501 409.34782890154304 1188.6599698979069 409.34782890154304L1188.6599698979069 409.34782890154304L1192.4692565034711 409.0864072717494Q1192.8613889481617 409.0864072717494 1192.8613889481617 409.83332621401695Q1192.8613889481617 410.58024515628443 1191.871721349657 411.04706949520164L1191.871721349657 411.04706949520164L1174.4124910741536 418.27351026163996Q1173.6282261847728 418.66564270633046 1173.068036978072 418.66564270633046Q1172.5078477713714 418.66564270633046 1172.5078477713714 417.0224210333419L1172.5078477713714 417.0224210333419ZM1287.9254973252614 396.2207284911912L1287.9254973252614 396.2207284911912L1287.7947865103642 382.36538211212854Q1287.7947865103642 373.88785211739213 1286.3382945729427 370.47069795651817Q1284.9004756090776 367.0722167692009 1282.6597187822754 365.3169572548722Q1280.4376349290292 363.5803707141002 1276.6656942705781 363.5803707141002Q1272.893753612127 363.5803707141002 1260.681628906053 369.4997033315704L1260.681628906053 369.4997033315704Q1259.0384072330648 370.47069795651817 1258.963715338838 371.3296547401258L1258.963715338838 371.3296547401258L1258.963715338838 406.6589207093799Q1258.963715338838 413.28782632200426 1266.0594452903792 414.258820946952L1266.0594452903792 414.258820946952Q1269.140485927233 414.72564528586923 1269.140485927233 415.7339858579304Q1269.140485927233 416.7609994035482 1268.486931852749 416.89171021844504L1268.486931852749 416.89171021844504L1239.2077093158618 416.89171021844504Q1238.5541552413774 416.7609994035482 1238.5541552413774 415.97673451416733L1238.5541552413774 415.97673451416733Q1238.5541552413774 414.72564528586923 1241.6351958782311 414.258820946952L1241.6351958782311 414.258820946952Q1248.7309258297728 413.28782632200426 1248.7309258297728 406.6589207093799L1248.7309258297728 406.6589207093799L1248.7309258297728 373.9625440116189Q1248.7309258297728 363.65506260832694 1235.9959578641115 363.65506260832694L1235.9959578641115 363.65506260832694Q1231.327714474939 363.65506260832694 1223.0555871893262 369.16358980755L1223.0555871893262 369.16358980755Q1220.964214150977 370.5453898507449 1219.974546552473 371.72178718481626L1219.974546552473 371.72178718481626L1219.974546552473 406.6589207093799Q1219.974546552473 413.28782632200426 1227.0702765040146 414.258820946952L1227.0702765040146 414.258820946952Q1230.1513171408678 414.72564528586923 1230.1513171408678 415.7339858579304Q1230.1513171408678 416.7609994035482 1229.4977630663839 416.89171021844504L1229.4977630663839 416.89171021844504L1200.218540529497 416.89171021844504Q1199.5649864550128 416.7609994035482 1199.5649864550128 415.97673451416733L1199.5649864550128 415.97673451416733Q1199.5649864550128 414.72564528586923 1202.6460270918665 414.258820946952L1202.6460270918665 414.258820946952Q1209.7417570434077 413.28782632200426 1209.7417570434077 406.78963152427673L1209.7417570434077 406.78963152427673L1209.7417570434077 368.97686007198314Q1209.7417570434077 366.21325998559325 1206.7167353272243 365.16757346641873L1206.7167353272243 365.16757346641873Q1205.4096271782562 364.7007491275015 1203.8971163201645 364.4019815505945Q1202.3846054620726 364.1032139736875 1201.4883027313517 363.8417923438938Q1200.6106729741873 363.5803707141002 1200.386597291507 363.35629503141996Q1200.1438486352702 363.1322193487397 1200.1438486352702 362.3666274329155Q1200.1438486352702 361.61970849064795 1201.1335162337746 361.0968652310607L1201.1335162337746 361.0968652310607L1217.8645005405672 353.21687039013824Q1218.6674384035048 352.8247379454478 1218.8541681390716 352.8247379454478L1218.8541681390716 352.8247379454478Q1219.974546552473 352.8247379454478 1219.974546552473 354.3932677242096L1219.974546552473 354.3932677242096L1219.974546552473 365.29828428131555Q1220.0305654731428 365.690416726006 1220.4600438649468 365.690416726006Q1220.8895222567508 365.690416726006 1222.6261087975226 364.7754410217282Q1224.3813683118515 363.8417923438938 1227.2009873189113 362.1798976973486Q1230.0206063259711 360.49933007724667 1234.6515037680297 358.27724622400075Q1239.2824012100882 356.0364893971982 1244.454814885291 356.0364893971982L1244.454814885291 356.0364893971982Q1252.8016340651307 356.0364893971982 1256.4055179615716 363.18823826940974L1256.4055179615716 363.18823826940974Q1257.7873180047663 366.08254917069644 1258.9076964181677 365.6530707788926Q1260.028074831569 365.2235923870888 1262.3808694997115 364.04719505301745L1262.3808694997115 364.04719505301745Q1267.9640885931617 361.28359496662756 1273.6780185015082 358.6693786686912Q1279.3919484098546 356.0364893971982 1283.1265431211923 356.0364893971982L1283.1265431211923 356.0364893971982Q1298.2889976492233 356.0364893971982 1298.2889976492233 383.6724902610967L1298.2889976492233 383.6724902610967L1297.6914624954093 402.8496341038155L1297.6914624954093 406.6589207093799Q1297.6914624954093 411.7753154639125 1302.8265302234986 413.3438452426743L1302.8265302234986 413.3438452426743Q1304.9925951560745 414.07209121138516 1306.9906033266398 414.37085878829214Q1308.9886114972055 414.6509533916425 1309.623492598133 414.9310479949928Q1310.2397007255036 415.19246962478644 1310.2397007255036 415.97673451416733Q1310.2397007255036 416.7609994035482 1309.5861466510196 416.89171021844504L1309.5861466510196 416.89171021844504L1277.935456472433 416.89171021844504Q1277.2819023979491 416.7609994035482 1277.2819023979491 415.97673451416733L1277.2819023979491 415.97673451416733Q1277.2819023979491 414.72564528586923 1280.3629430348024 414.258820946952L1280.3629430348024 414.258820946952Q1287.4026540656741 413.28782632200426 1287.4026540656741 406.117404476236L1287.4026540656741 406.117404476236Q1287.9254973252614 402.8496341038155 1287.9254973252614 396.2207284911912ZM1363.7377699654153 382.2906902179018L1325.663576883328 382.2906902179018Q1324.5431984699267 382.2906902179018 1324.5431984699267 387.08964442197066L1324.5431984699267 387.08964442197066Q1324.5431984699267 397.26641501036573 1330.5932419022938 404.1567422527837Q1336.624612361104 411.04706949520164 1345.5876396683143 411.04706949520164Q1354.5506669755246 411.04706949520164 1362.822794261138 403.29778546917606L1362.822794261138 403.29778546917606Q1362.9535050760346 403.16707465427925 1363.1589077851581 403.16707465427925L1363.1589077851581 403.16707465427925L1363.4763483356219 403.16707465427925Q1363.8684807803124 403.16707465427925 1364.241940251446 403.8019557552066Q1364.5967267490232 404.41816388257735 1364.9141672994865 404.6235665917009L1364.9141672994865 404.6235665917009Q1357.3142670619145 413.8666885022616 1347.006785658623 417.41455347803236L1347.006785658623 417.41455347803236Q1343.4589206828518 418.66564270633046 1338.9960800028034 418.66564270633046Q1334.533239322755 418.66564270633046 1329.9396878278098 416.2008101968476Q1325.3461363328647 413.73597768736477 1322.059692986887 409.7399613462335L1322.059692986887 409.7399613462335Q1315.0946738502425 401.39314216639383 1315.0946738502425 388.9569417776395Q1315.0946738502425 376.52074138888514 1322.675901114258 366.2692789062633Q1330.2571283782736 356.0364893971982 1343.5149396035222 356.0364893971982L1343.5149396035222 356.0364893971982Q1353.0381561174331 356.0364893971982 1359.0881995498003 364.5326923654913Q1365.1195700086105 373.0475683073411 1365.1195700086105 379.4710712108419L1365.1195700086105 379.4710712108419Q1365.1195700086105 382.2906902179018 1363.7377699654153 382.2906902179018L1363.7377699654153 382.2906902179018ZM1326.3918228520388 375.213633239917L1326.3918228520388 375.9978981292979Q1326.3918228520388 377.248987357596 1327.5682201861105 377.248987357596L1327.5682201861105 377.248987357596L1352.3099101487223 377.248987357596Q1354.0278237159378 377.248987357596 1354.0278237159378 375.213633239917L1354.0278237159378 375.213633239917Q1354.0278237159378 370.47069795651817 1349.7890587185693 365.52235996399577Q1345.5502937212013 360.5740219714734 1340.5085908608953 360.5740219714734L1340.5085908608953 360.5740219714734Q1335.5789258419295 360.5740219714734 1331.545563553685 365.0368626515219Q1327.5122012654401 369.4997033315704 1326.3918228520388 375.213633239917L1326.3918228520388 375.213633239917Z " fill="#ff971d" transform="matrix(0.6409694549432629,0,0,0.6409694549432629,0,53.927988558542324)"/></g></svg>